<?xml version="1.0" encoding="UTF-8"?>
<!DOCTYPE svg PUBLIC "-//W3C//DTD SVG 1.1//EN" "http://www.w3.org/Graphics/SVG/1.1/DTD/svg11.dtd">
<svg xmlns="http://www.w3.org/2000/svg" xmlns:xlink="http://www.w3.org/1999/xlink" version="1.1" width="65px" height="52px" viewBox="-0.5 -0.5 65 52"><defs/><g><path d="M 53.3 36 C 57.8 35.39 61.01 30.73 60.47 25.61 C 59.93 20.49 55.84 16.83 51.35 17.45 C 51.3 9.79 46.59 3.21 40.02 1.6 C 33.45 0 26.78 3.81 23.98 10.77 C 21.91 8.07 18.62 7.05 15.63 8.18 C 12.64 9.32 10.54 12.38 10.3 15.96 C 5.45 15.76 1.36 20.08 1.18 25.61 C 1 31.14 4.79 35.8 9.65 36 Z" fill="#000000" stroke="#000000" stroke-width="2" stroke-miterlimit="10" pointer-events="all" transform="translate(2,3)" opacity="0.25"/><path d="M 53.3 36 C 57.8 35.39 61.01 30.73 60.47 25.61 C 59.93 20.49 55.84 16.83 51.35 17.45 C 51.3 9.79 46.59 3.21 40.02 1.6 C 33.45 0 26.78 3.81 23.98 10.77 C 21.91 8.07 18.62 7.05 15.63 8.18 C 12.64 9.32 10.54 12.38 10.3 15.96 C 5.45 15.76 1.36 20.08 1.18 25.61 C 1 31.14 4.79 35.8 9.65 36 Z" fill="#ffffff" stroke="#2875e2" stroke-width="2" stroke-miterlimit="10" pointer-events="all"/><path d="M 22.5 44.5 C 21.67 44.5 21 43.83 21 43 L 21 22 C 21 21.17 21.67 20.5 22.5 20.5 L 34.5 20.5 C 35.33 20.5 36 21.17 36 22 C 36 21.17 36.67 20.5 37.5 20.5 L 49.5 20.5 C 50.33 20.5 51 21.17 51 22 L 51 43 C 51 43.83 50.33 44.5 49.5 44.5 Z M 36 22 L 36 46" fill="#000000" stroke="#000000" stroke-width="2" stroke-miterlimit="10" pointer-events="all" transform="translate(2,3)" opacity="0.25"/><path d="M 22.5 44.5 C 21.67 44.5 21 43.83 21 43 L 21 22 C 21 21.17 21.67 20.5 22.5 20.5 L 34.5 20.5 C 35.33 20.5 36 21.17 36 22 C 36 21.17 36.67 20.5 37.5 20.5 L 49.5 20.5 C 50.33 20.5 51 21.17 51 22 L 51 43 C 51 43.83 50.33 44.5 49.5 44.5 Z M 36 22 L 36 46" fill="#ffffff" stroke="#2875e2" stroke-width="2" stroke-miterlimit="10" pointer-events="all"/></g></svg>